<svg width="28" height="28" viewBox="0 0 28 28" fill="none" xmlns="http://www.w3.org/2000/svg">
<path d="M28 0.512209C28 0.0444285 28 -0.00012207 27.5556 -0.00012207H0.555556C0.111111 -0.00012207 0 0.0444285 0 0.489934V27.5544C0 27.9999 0.0666667 27.9999 0.488889 27.9999H27.5556C27.9111 27.9999 28 27.9108 28 27.5544C27.9778 23.0548 28 18.5329 28 14.0333V0.512209ZM12.8222 20.7159L10.6667 15.8599L8.4 20.7159H5.91111L9.13333 14.1892L6.13333 7.28389L8.68889 7.30616L10.5778 11.828L12.8889 7.28389H15.2889L12.0444 13.8328L15.2667 20.7159H12.8222ZM22.5111 7.52891V20.1367C22.5111 20.4708 22.4667 20.6713 22.1333 20.6936C20.5778 20.8941 19.0222 21.1168 17.4889 20.6713C15.8222 20.2035 14.8667 18.8893 14.8 17.085C14.7111 14.8575 15.5556 13.3205 17.2 12.6077C18.2222 12.1622 19.2667 12.1399 20.4444 12.2513V7.30616H22.5111V7.52891ZM18.1778 18.9784C18.9111 19.1789 19.6444 19.112 20.4 18.9784V14.5233C20.4 14.4565 20.3111 14.3229 20.2444 14.3006C19.4222 14.1669 18.5778 14.1669 17.8 14.5902C17 15.0357 16.5778 15.9712 16.6667 17.0627C16.7333 18.0651 17.2667 18.7111 18.1778 18.9784Z" fill="#DD80BC"/>
</svg>
