<svg width="38" height="31" viewBox="0 0 38 31" fill="none" xmlns="http://www.w3.org/2000/svg">
<path d="M4.89727 4.67109C4.82783 2.67451 6.3832 0.833496 8.48584 0.833496H30.0308C32.1334 0.833496 33.6888 2.67451 33.6193 4.67109C33.5525 6.58887 33.6393 9.07324 34.2645 11.0988C34.8917 13.1309 35.9493 14.4149 37.6816 14.5802V16.4514C35.9493 16.6166 34.8917 17.9007 34.2645 19.9327C33.6393 21.9583 33.5525 24.4427 33.6193 26.3605C33.6888 28.357 32.1334 30.1978 30.0308 30.1978H8.48584C6.3832 30.1978 4.82783 28.3567 4.89727 26.3605C4.96406 24.4427 4.87734 21.9583 4.25186 19.9327C3.6249 17.901 2.56436 16.6166 0.832031 16.4514V14.5802C2.56436 14.4152 3.6249 13.1309 4.25186 11.0988C4.87734 9.07324 4.96377 6.58887 4.89727 4.67109Z" fill="url(#paint0_linear_269_498)"/>
<defs>
<linearGradient id="paint0_linear_269_498" x1="6.30778" y1="1.61064" x2="38.5076" y2="27.1712" gradientUnits="userSpaceOnUse">
<stop stop-color="#9013FE"/>
<stop offset="1" stop-color="#6610F2"/>
</linearGradient>
</defs>
</svg>
