<svg width="30" height="30" viewBox="0 0 30 30" fill="none" xmlns="http://www.w3.org/2000/svg">
<path d="M25.1987 0H0V25.1987C0 26.471 0.508929 27.6897 1.40625 28.5938C2.30357 29.4978 3.52902 30 4.80134 30H25.1987C26.471 30 27.6897 29.4911 28.5938 28.5938C29.4978 27.6964 30 26.471 30 25.1987V4.80134C30 3.52902 29.4911 2.31027 28.5938 1.40625C27.6964 0.502232 26.471 0 25.1987 0ZM22.2589 26.7455C21.7433 26.1763 21.4754 25.3594 21.4554 24.2946H23.5513C23.5647 25.2388 23.8929 25.7076 24.5424 25.7076C24.8705 25.7076 25.1049 25.6004 25.2455 25.3929C25.3795 25.1853 25.4464 24.8571 25.4464 24.4018C25.4464 24.0402 25.3594 23.7388 25.1786 23.5045C24.9442 23.2232 24.6362 23.0022 24.2946 22.8683L23.5179 22.5C22.8281 22.1719 22.3259 21.7768 22.0112 21.3214C21.7098 20.8661 21.5625 20.2299 21.5625 19.4196C21.5625 18.5089 21.8304 17.7723 22.3527 17.2031C22.8951 16.6339 23.6317 16.3527 24.5759 16.3527C25.4866 16.3527 26.1897 16.6339 26.6853 17.1897C27.1875 17.7522 27.4554 18.5491 27.4754 19.5938H25.4598C25.4732 19.2522 25.3996 18.9107 25.2589 18.6027C25.1451 18.375 24.9241 18.2612 24.5893 18.2612C24 18.2612 23.7054 18.6094 23.7054 19.3125C23.7054 19.6674 23.779 19.942 23.9196 20.1562C24.1272 20.3906 24.3884 20.5714 24.683 20.6786L25.4263 21.0067C26.1964 21.3616 26.7455 21.7902 27.0871 22.3058C27.4286 22.8214 27.596 23.5112 27.596 24.3817C27.596 25.4196 27.3281 26.2165 26.7723 26.7723C26.2232 27.3281 25.4665 27.6094 24.4888 27.6094C23.5112 27.6094 22.7746 27.3281 22.2522 26.7589L22.2589 26.7455ZM15.4955 26.7455C14.9799 26.1763 14.7121 25.3594 14.692 24.2946H16.7879C16.8013 25.2388 17.1295 25.7076 17.779 25.7076C18.1071 25.7076 18.3415 25.6004 18.4754 25.3929C18.6094 25.1853 18.6763 24.8571 18.6763 24.4018C18.6763 24.0402 18.5893 23.7388 18.4152 23.5045C18.1808 23.2232 17.8728 23.0022 17.5312 22.8683L16.7545 22.5C16.0647 22.1719 15.5625 21.7768 15.2478 21.3214C14.9464 20.8661 14.7991 20.2299 14.7991 19.4196C14.7991 18.5089 15.067 17.7723 15.5893 17.2031C16.1317 16.6339 16.8683 16.3527 17.8125 16.3527C18.7232 16.3527 19.4263 16.6339 19.9152 17.1897C20.4241 17.7522 20.6853 18.5491 20.7121 19.5938H18.6964C18.7098 19.2522 18.6362 18.9107 18.4955 18.6027C18.3817 18.375 18.1607 18.2612 17.8259 18.2612C17.2366 18.2612 16.942 18.6094 16.942 19.3125C16.942 19.6674 17.0156 19.942 17.1562 20.1562C17.3638 20.3906 17.625 20.5714 17.9196 20.6786L18.6629 21.0067C19.433 21.3616 19.9821 21.7902 20.3237 22.3058C20.6652 22.8214 20.8326 23.5112 20.8326 24.3817C20.8326 25.4196 20.558 26.2165 20.0089 26.7723C19.1853 27.606 18.7031 27.6094 17.7254 27.6094C16.7478 27.6094 16.0112 27.3281 15.4888 26.7589L15.4955 26.7455ZM8.42411 26.8192C7.86161 26.3036 7.58705 25.5335 7.58705 24.5089V19.4598C7.58705 18.442 7.8817 17.6719 8.47098 17.1429C9.06696 16.6205 9.85714 16.3527 10.8281 16.3527C11.7723 16.3527 12.5156 16.6205 13.0647 17.1562C13.6205 17.692 13.9018 18.4955 13.9018 19.5603V19.9621H11.6853V19.5737C11.6853 19.1652 11.5982 18.8571 11.4174 18.6629C11.3438 18.5625 11.2433 18.4821 11.1295 18.4286C11.0156 18.375 10.8951 18.3482 10.7679 18.3549C10.4062 18.3549 10.1518 18.4754 10.0045 18.7299C9.85045 19.0781 9.78348 19.4531 9.80357 19.8281V24.2143C9.80357 25.1317 10.125 25.5937 10.7679 25.6071C11.0692 25.6071 11.2969 25.5 11.4509 25.2857C11.6183 25.0112 11.6987 24.6964 11.6853 24.375V24.0469H13.9018V24.3884C13.9018 25.0982 13.7612 25.6942 13.4866 26.1696C13.2187 26.6317 12.8237 27.0067 12.3415 27.2411C11.8259 27.4888 11.2634 27.6094 10.6942 27.596C9.7433 27.596 8.98661 27.3348 8.4308 26.8192H8.42411Z" fill="#009DFF"/>
</svg>
