<svg width="35" height="35" viewBox="0 0 35 35" fill="none" xmlns="http://www.w3.org/2000/svg">
<g clip-path="url(#clip0_269_464)">
<path fillRule="evenodd" clipRule="evenodd" d="M20.2595 13.8381H23.2636V16.8953H24.7789C25.47 16.8953 26.1878 16.7624 26.8524 16.5497C27.1714 16.4434 27.5436 16.2839 27.8626 16.0978C27.4373 15.5395 27.2246 14.8483 27.1714 14.1571C27.0917 13.2267 27.2778 12.0038 27.9158 11.2861L28.2348 10.9139L28.607 11.2063C29.564 11.9772 30.3349 13.014 30.4945 14.2369C31.6376 13.8913 32.9668 13.9711 33.977 14.5559L34.3757 14.7952L34.1631 15.2205C33.3124 16.8687 31.5312 17.4004 29.8033 17.2941C27.198 23.754 21.5622 26.8112 14.7034 26.8112C11.1677 26.8112 7.92447 25.482 6.06357 22.3451L6.03699 22.2919L5.77115 21.7336C5.13313 20.3513 4.94704 18.836 5.07996 17.3207L5.13313 16.8687H7.68521V13.8381H10.6892V10.8607H16.6707V7.85669H20.2595V13.8381Z" fill="#3A4D54"/>
<path d="M29.9894 14.9812C30.2021 13.4127 29.0324 12.1898 28.2881 11.605C27.4639 12.562 27.331 15.1141 28.6337 16.1775C27.8893 16.8155 26.374 17.4269 24.7789 17.4269H5.58515C5.42565 19.0751 5.71807 20.5904 6.38268 21.8931L6.59535 22.2918C6.72827 22.5311 6.88778 22.7438 7.04728 22.983C7.84481 23.0362 8.56258 23.0628 9.22719 23.0362C10.5298 23.0096 11.5932 22.8501 12.4173 22.5843C12.5502 22.5311 12.6565 22.6108 12.7097 22.7172C12.7629 22.8501 12.6831 22.9564 12.5768 23.0096C12.4705 23.0362 12.3641 23.0894 12.2312 23.1159C11.5932 23.302 10.902 23.4084 10.0247 23.4615H9.86521C9.51961 23.4881 9.14743 23.4881 8.74867 23.4881C8.32332 23.4881 7.92456 23.4881 7.44605 23.4615C9.0411 25.2693 11.54 26.3326 14.6769 26.3326C21.323 26.3326 26.9588 23.3818 29.4312 16.7889C31.2123 16.975 32.9137 16.5231 33.6847 15.0078C32.4884 14.29 30.8933 14.5292 29.9894 14.9812Z" fill="#00AADA"/>
<path d="M29.9898 14.9812C30.2024 13.4127 29.0327 12.1898 28.2884 11.605C27.4643 12.562 27.3313 15.1141 28.634 16.1775C27.8896 16.8155 26.3743 17.4269 24.7793 17.4269H6.702C6.62225 19.9524 7.5527 21.8665 9.2275 23.0096C10.5301 22.983 11.5935 22.8235 12.4176 22.5577C12.5505 22.5045 12.6569 22.5843 12.71 22.6906C12.7632 22.8235 12.6834 22.9298 12.5771 22.983C12.4708 23.0096 12.3644 23.0628 12.2315 23.0894C11.5935 23.2754 10.8491 23.4084 9.97186 23.4615L9.94528 23.4349C12.2049 24.6047 15.4748 24.5781 19.2497 23.1425C23.4501 21.5209 27.3845 18.4371 30.1227 14.928C30.0695 14.9546 30.0163 14.9546 29.9898 14.9812Z" fill="#28B8EB"/>
<path d="M5.61182 19.4207C5.71815 20.2979 5.984 21.122 6.38276 21.893L6.59543 22.2917C6.72835 22.531 6.88786 22.7437 7.04736 22.9829C7.84489 23.0361 8.56266 23.0627 9.22727 23.0361C10.5299 23.0095 11.5933 22.85 12.4174 22.5842C12.5503 22.531 12.6566 22.6108 12.7098 22.7171C12.763 22.85 12.6832 22.9564 12.5769 23.0095C12.4705 23.0361 12.3642 23.0893 12.2313 23.1159C11.5933 23.3019 10.8489 23.4349 9.97162 23.488H9.86529C9.51969 23.5146 9.14751 23.5146 8.77534 23.5146C8.34999 23.5146 7.92464 23.5146 7.47271 23.488C9.06776 25.2958 11.5933 26.3591 14.7302 26.3591C20.4192 26.3591 25.3639 24.2058 28.235 19.4472H5.61182V19.4207Z" fill="#028BB8"/>
<path d="M6.8877 19.4207C7.23329 20.9625 8.03082 22.1854 9.2271 23.0095C10.5297 22.9829 11.5931 22.8234 12.4172 22.5576C12.5501 22.5044 12.6565 22.5842 12.7096 22.6905C12.7628 22.8234 12.6831 22.9298 12.5767 22.9829C12.4704 23.0095 12.364 23.0627 12.2311 23.0893C11.5931 23.2754 10.8487 23.4083 9.94488 23.4615C12.2045 24.6312 15.4744 24.6046 19.2228 23.169C21.4824 22.2917 23.6889 20.9891 25.6561 19.4207H6.8877Z" fill="#019BC6"/>
<path fillRule="evenodd" clipRule="evenodd" d="M8.19043 14.3432H10.7957V16.9484H8.19043V14.3432ZM8.4031 14.5558H8.61578V16.7091H8.4031V14.5558ZM8.77528 14.5558H8.98796V16.7091H8.77528V14.5558ZM9.17404 14.5558H9.38672V16.7091H9.17404V14.5558ZM9.57281 14.5558H9.78548V16.7091H9.57281V14.5558ZM9.97157 14.5558H10.1842V16.7091H9.97157V14.5558ZM10.3703 14.5558H10.583V16.7091H10.3703V14.5558ZM11.1679 11.3657H13.7731V13.971H11.1679V11.3657ZM11.4071 11.5784H11.6198V13.7317H11.4071V11.5784ZM11.7793 11.5784H11.992V13.7317H11.7793V11.5784ZM12.1781 11.5784H12.3907V13.7317H12.1781V11.5784ZM12.5768 11.5784H12.7895V13.7317H12.5768V11.5784ZM12.949 11.5784H13.1617V13.7317H12.949V11.5784ZM13.3478 11.5784H13.5604V13.7317H13.3478V11.5784Z" fill="#00ACD3"/>
<path fillRule="evenodd" clipRule="evenodd" d="M11.168 14.343H13.7732V16.9483H11.168V14.343ZM11.4072 14.5557H11.6199V16.709H11.4072V14.5557ZM11.7794 14.5557H11.9921V16.709H11.7794V14.5557ZM12.1782 14.5557H12.3908V16.709H12.1782V14.5557ZM12.5769 14.5557H12.7896V16.709H12.5769V14.5557ZM12.9491 14.5557H13.1618V16.709H12.9491V14.5557ZM13.3479 14.5557H13.5605V16.709H13.3479V14.5557Z" fill="#23C2EE"/>
<path fillRule="evenodd" clipRule="evenodd" d="M14.1719 14.343H16.7771V16.9483H14.1719V14.343ZM14.3845 14.5557H14.5972V16.709H14.3845V14.5557ZM14.7833 14.5557H14.996V16.709H14.7833V14.5557ZM15.1821 14.5557H15.3947V16.709H15.1821V14.5557ZM15.5543 14.5557H15.7669V16.709H15.5543V14.5557ZM15.953 14.5557H16.1657V16.709H15.953V14.5557ZM16.3518 14.5557H16.5645V16.709H16.3518V14.5557Z" fill="#00ACD3"/>
<path fillRule="evenodd" clipRule="evenodd" d="M14.1719 11.3657H16.7771V13.971H14.1719V11.3657ZM14.3845 11.5784H14.5972V13.7317H14.3845V11.5784ZM14.7833 11.5784H14.996V13.7317H14.7833V11.5784ZM15.1821 11.5784H15.3947V13.7317H15.1821V11.5784ZM15.5543 11.5784H15.7669V13.7317H15.5543V11.5784ZM15.953 11.5784H16.1657V13.7317H15.953V11.5784ZM16.3518 11.5784H16.5645V13.7317H16.3518V11.5784ZM17.1759 14.3432H19.7811V16.9484H17.1759V14.3432ZM17.3886 14.5558H17.6012V16.7091H17.3886V14.5558ZM17.7873 14.5558H18V16.7091H17.7873V14.5558ZM18.1595 14.5558H18.3722V16.7091H18.1595V14.5558ZM18.5583 14.5558H18.7709V16.7091H18.5583V14.5558ZM18.957 14.5558H19.1697V16.7091H18.957V14.5558ZM19.3558 14.5558H19.5685V16.7091H19.3558V14.5558Z" fill="#23C2EE"/>
<path fillRule="evenodd" clipRule="evenodd" d="M17.1758 11.3657H19.781V13.971H17.1758V11.3657ZM17.3885 11.5784H17.6011V13.7317H17.3885V11.5784ZM17.7872 11.5784H17.9999V13.7317H17.7872V11.5784ZM18.1594 11.5784H18.3721V13.7317H18.1594V11.5784ZM18.5582 11.5784H18.7708V13.7317H18.5582V11.5784ZM18.9569 11.5784H19.1696V13.7317H18.9569V11.5784ZM19.3557 11.5784H19.5684V13.7317H19.3557V11.5784Z" fill="#00ACD3"/>
<path fillRule="evenodd" clipRule="evenodd" d="M17.1758 8.36157H19.781V10.9668H17.1758V8.36157ZM17.3885 8.57425H17.6011V10.7276H17.3885V8.57425ZM17.7872 8.57425H17.9999V10.7276H17.7872V8.57425ZM18.1594 8.57425H18.3721V10.7276H18.1594V8.57425ZM18.5582 8.57425H18.7708V10.7276H18.5582V8.57425ZM18.9569 8.57425H19.1696V10.7276H18.9569V8.57425ZM19.3557 8.57425H19.5684V10.7276H19.3557V8.57425Z" fill="#23C2EE"/>
<path fillRule="evenodd" clipRule="evenodd" d="M20.1802 14.343H22.7854V16.9483H20.1802V14.343ZM20.3929 14.5557H20.6055V16.709H20.3929V14.5557ZM20.765 14.5557H20.9777V16.709H20.765V14.5557ZM21.1638 14.5557H21.3765V16.709H21.1638V14.5557ZM21.5626 14.5557H21.7752V16.709H21.5626V14.5557ZM21.9613 14.5557H22.174V16.709H21.9613V14.5557ZM22.3601 14.5557H22.5728V16.709H22.3601V14.5557Z" fill="#00ACD3"/>
<path fillRule="evenodd" clipRule="evenodd" d="M13.6138 21.1487C14.0125 21.1487 14.3315 21.4677 14.3315 21.8665C14.3315 22.2652 14.0125 22.5842 13.6138 22.5842C13.215 22.5842 12.896 22.2652 12.896 21.8665C12.896 21.4677 13.215 21.1487 13.6138 21.1487Z" fill="#D4EEF1"/>
<path fillRule="evenodd" clipRule="evenodd" d="M13.6138 21.3614C13.6669 21.3614 13.7467 21.3614 13.7999 21.388C13.7467 21.4146 13.6935 21.4943 13.6935 21.5741C13.6935 21.6804 13.7999 21.7867 13.9062 21.7867C13.9859 21.7867 14.0657 21.7336 14.0923 21.6804C14.1189 21.7336 14.1189 21.8133 14.1189 21.8665C14.1189 22.1589 13.8796 22.3716 13.6138 22.3716C13.3213 22.3716 13.1087 22.1323 13.1087 21.8665C13.1087 21.6006 13.3213 21.3614 13.6138 21.3614ZM0.933105 19.6866H34.2697C33.5519 19.5005 31.9835 19.2612 32.2227 18.3042C30.8935 19.8195 27.73 19.3676 26.9059 18.6232C26.002 19.9258 20.7915 19.4207 20.4459 18.4105C19.3294 19.7397 15.8468 19.7397 14.7303 18.4105C14.3581 19.4207 9.14762 19.9258 8.27034 18.6232C7.47282 19.3676 4.28271 19.8195 2.9535 18.3042C3.24593 19.2346 1.65088 19.5005 0.933105 19.6866Z" fill="#3A4D54"/>
<path d="M15.5278 26.3326C13.7467 25.4819 12.7897 24.3388 12.2314 23.0894C11.5668 23.2754 10.7693 23.4084 9.8654 23.4615C9.5198 23.4881 9.14762 23.4881 8.77544 23.4881C8.32351 23.4881 7.87158 23.4881 7.39307 23.4615C8.98812 25.0566 11.0085 26.306 14.7037 26.3326H15.5278Z" fill="#BFDBE0"/>
<path d="M12.8958 24.2325C12.6566 23.8869 12.4173 23.4881 12.2312 23.0894C11.5666 23.2754 10.7691 23.4084 9.86523 23.4615C10.4767 23.7805 11.3805 24.0996 12.8958 24.2325Z" fill="#D4EEF1"/>
</g>
<defs>
<clipPath id="clip0_269_464">
<rect width="34.0278" height="34.0278" fill="white" transform="translate(0.640625 0.333252)"/>
</clipPath>
</defs>
</svg>
