<svg width="36" height="36" viewBox="0 0 36 36" fill="none" xmlns="http://www.w3.org/2000/svg">
<g clip-path="url(#clip0_269_552)">
<path d="M12.9414 35.7734C16.1953 35.7734 18.8203 33.1484 18.8203 29.8945V24.0156H12.9414C9.6875 24.0156 7.0625 26.6406 7.0625 29.8945C7.0625 33.1484 9.6875 35.7734 12.9414 35.7734Z" fill="#0ACF83"/>
<path d="M7.0625 18.1367C7.0625 14.8828 9.6875 12.2578 12.9414 12.2578H18.8203V24.0156H12.9414C9.6875 24.0156 7.0625 21.3906 7.0625 18.1367Z" fill="#A259FF"/>
<path d="M7.0625 6.37891C7.0625 3.125 9.6875 0.5 12.9414 0.5H18.8203V12.2578H12.9414C9.6875 12.2578 7.0625 9.63281 7.0625 6.37891Z" fill="#F24E1E"/>
<path d="M18.8203 0.5H24.6992C27.9531 0.5 30.5781 3.125 30.5781 6.37891C30.5781 9.63281 27.9531 12.2578 24.6992 12.2578H18.8203V0.5Z" fill="#FF7262"/>
<path d="M30.5781 18.1367C30.5781 21.3906 27.9531 24.0156 24.6992 24.0156C21.4453 24.0156 18.8203 21.3906 18.8203 18.1367C18.8203 14.8828 21.4453 12.2578 24.6992 12.2578C27.9531 12.2578 30.5781 14.8828 30.5781 18.1367Z" fill="#1ABCFE"/>
</g>
<defs>
<clipPath id="clip0_269_552">
<rect width="35" height="35" fill="white" transform="translate(0.5 0.5)"/>
</clipPath>
</defs>
</svg>
