<svg width="30" height="30" viewBox="0 0 30 30" fill="none" xmlns="http://www.w3.org/2000/svg">
<path d="M6.94775 6.70516e-06C6.91993 0.000257531 6.89218 0.00182473 6.86476 0.0046942C6.75565 0.0154704 6.65496 0.047071 6.57715 0.0949533C6.49934 0.142836 6.44843 0.204534 6.43173 0.271178L2.35114 16.2021L5.03695 13.083L11.831 5.19281L7.41652 0.169928L7.41537 0.169694C7.37016 0.118113 7.3027 0.0750448 7.22029 0.0451398C7.13788 0.0152348 7.04364 -0.000371237 6.94775 6.70516e-06ZM14.6417 3.02461C14.4461 3.02461 14.2678 3.09 14.1768 3.19571L12.1549 5.54391L12.153 5.54156L2.91059 16.275L5.82425 14.4949L15.1639 8.78765L18.2816 6.88242L15.1078 3.19571C15.063 3.144 14.9959 3.10074 14.9138 3.07059C14.8316 3.04044 14.7376 3.02454 14.6417 3.02461ZM23.3627 4.39688C23.3153 4.39604 23.2678 4.39903 23.2217 4.40578C23.128 4.41977 23.0424 4.44921 22.9742 4.49086L18.9571 6.945L15.5535 9.02507L2.27429 17.1391L13.5532 20.9976C13.8702 21.1056 14.2277 21.1622 14.5908 21.1622C14.9539 21.1622 15.311 21.1056 15.628 20.9976L27.1555 17.088L23.8637 4.66313V4.6643C23.8475 4.60634 23.8055 4.55222 23.7423 4.50783C23.679 4.46344 23.5971 4.43049 23.5053 4.41258C23.4591 4.40353 23.4111 4.39809 23.3627 4.39688ZM27.4114 17.1933L27.2485 17.2015L27.3165 17.2256L27.4114 17.1933ZM4.63465 26.1822C4.52357 26.181 4.41443 26.2001 4.32143 26.2372C4.22844 26.2743 4.15589 26.3275 4.11325 26.3901C4.06421 26.4621 4.0578 26.5422 4.0951 26.6167C4.13241 26.6912 4.2111 26.7555 4.31766 26.7984C4.42421 26.8417 4.55207 26.8611 4.67944 26.8533C4.80682 26.8455 4.92583 26.8111 5.0162 26.7558C5.06825 26.725 5.10939 26.688 5.13708 26.6471C5.16477 26.6062 5.17843 26.5623 5.1772 26.5181C5.1772 26.3578 4.99046 26.2197 4.73148 26.1886C4.69956 26.1848 4.66716 26.1827 4.63465 26.1822ZM0 26.224V29.9191H0.781151V28.3347H3.27715V27.8911H0.781151V26.6779H3.54765V26.224H0ZM13.2396 26.224V29.9191H13.9843V29.5682H14.0181C14.1575 29.7009 14.3531 29.8082 14.5841 29.8788C14.8475 29.9622 15.1411 30.0038 15.4378 29.9997C15.9737 30.0011 16.4368 29.8728 16.8272 29.6147C17.4128 29.2275 17.4128 29.0367 17.4128 28.6547C17.4133 28.2728 17.2181 27.9529 16.8272 27.6949C16.4366 27.4368 15.9724 27.3077 15.4348 27.3077C15.138 27.3046 14.8448 27.3472 14.5821 27.4315C14.3521 27.5019 14.1573 27.6087 14.0181 27.7408H13.9843L14.0181 27.3902V26.2237L13.2396 26.224ZM27.9635 27.3056C27.6864 27.3011 27.411 27.3345 27.1577 27.4033C26.9044 27.4722 26.6796 27.5747 26.4996 27.7033C26.1201 27.9646 25.9157 28.3035 25.9271 28.6525C25.9271 29.0416 26.1236 29.3635 26.5165 29.6182C26.9097 29.8725 27.4204 29.9997 28.0485 29.9997C28.5008 29.9997 28.8825 29.9341 29.1935 29.8029C29.49 29.6814 29.723 29.5103 29.8644 29.3102L29.1689 29.1337C28.9709 29.4228 28.5918 29.5673 28.0316 29.5673C27.6941 29.5692 27.3691 29.4895 27.1278 29.3456C26.8704 29.1968 26.7303 28.9951 26.7075 28.7404H29.9915L30 28.6525C30.0008 28.2433 29.8157 27.9165 29.4448 27.6722C29.0739 27.4278 28.5801 27.3056 27.9635 27.3056ZM23.8142 27.3068C23.4017 27.3003 22.9965 27.3734 22.6561 27.5156C22.3308 27.655 22.168 27.8365 22.1677 28.06C22.1619 28.1495 22.1911 28.2386 22.2531 28.3198C22.315 28.401 22.4079 28.472 22.5239 28.5269C22.7453 28.6371 23.0029 28.717 23.2793 28.7613L24.1189 28.8855C24.498 28.944 24.6875 29.0557 24.6875 29.2207C24.6884 29.2723 24.6674 29.3231 24.6266 29.3683C24.5858 29.4135 24.5266 29.4515 24.4547 29.4787C24.2768 29.5475 24.0688 29.5817 23.8584 29.5767C23.3276 29.5767 22.9518 29.4184 22.731 29.1018L22.0348 29.2772C22.1743 29.4829 22.4035 29.6614 22.6976 29.7932C22.9999 29.9307 23.3831 29.9995 23.8472 29.9995C24.3283 29.9997 24.7206 29.9248 25.0241 29.775C25.1691 29.7092 25.2867 29.6235 25.3674 29.5248C25.4481 29.4262 25.4897 29.3173 25.4887 29.2071C25.4899 29.0386 25.3892 28.8758 25.2059 28.7498C25.0189 28.6154 24.7302 28.5214 24.3398 28.4676L23.5168 28.3488C23.1489 28.2971 22.965 28.199 22.965 28.0544C22.965 28.0054 22.9871 27.9573 23.0289 27.9154C23.0708 27.8735 23.1307 27.8395 23.2021 27.817C23.3803 27.7554 23.5829 27.725 23.7877 27.7291C24.2682 27.7291 24.5852 27.8409 24.7387 28.0645L25.4176 27.8958C25.2996 27.7113 25.0808 27.5573 24.7982 27.4598C24.4985 27.3564 24.1585 27.3035 23.8142 27.3068ZM10.5757 27.3077C10.2985 27.3032 10.0232 27.3366 9.7699 27.4054C9.5166 27.4743 9.29174 27.5768 9.11177 27.7054C8.7323 27.9661 8.52727 28.3042 8.53734 28.6528C8.53785 29.0418 8.73458 29.3636 9.12753 29.6182C9.52022 29.8725 10.0307 29.9997 10.6591 29.9997C11.1117 29.9997 11.4938 29.9345 11.8053 29.804C12.1017 29.6824 12.3345 29.5113 12.4758 29.3111L11.7795 29.1358C11.5815 29.4249 11.2024 29.5694 10.6422 29.5694C10.3047 29.5712 9.97993 29.4913 9.73885 29.3472C9.48115 29.1986 9.34103 28.9971 9.31849 28.7425H12.6037L12.6122 28.6547C12.6127 28.2454 12.4275 27.9186 12.0566 27.6743C11.5002 27.3077 11.192 27.3077 10.5757 27.3077ZM19.6979 27.3086C19.234 27.3086 18.8606 27.3731 18.5778 27.502C18.2948 27.6311 18.1052 27.7713 18.0091 27.9227L18.7215 28.1086C18.7905 27.9943 18.9248 27.899 19.0996 27.8402C19.2862 27.7741 19.4987 27.7402 19.7144 27.742C19.9963 27.7367 20.2712 27.7959 20.4852 27.9079C20.5889 27.9633 20.6709 28.0321 20.7253 28.1093C20.7797 28.1865 20.8051 28.2702 20.7995 28.3542V28.4261C20.5064 28.323 20.1306 28.2715 19.6721 28.2715C19.1578 28.2715 18.7251 28.3497 18.3742 28.5063C18.0232 28.6625 17.8478 28.8783 17.8478 29.1536C17.8483 29.4083 17.9968 29.613 18.2935 29.7677C18.5893 29.9224 18.9582 29.9997 19.4001 29.9997C20.0003 29.9997 20.456 29.856 20.7672 29.5685H20.801V29.9193H21.5503V28.3907C21.5533 28.0456 21.3779 27.779 21.0239 27.5908C20.6704 27.4027 20.2281 27.3086 19.6979 27.3086ZM7.93524 27.3286C7.68056 27.3326 7.43252 27.3789 7.21787 27.4626C6.99348 27.5368 6.8203 27.6578 6.72989 27.8034H6.69647V27.3904H5.94951V29.9193H6.73028L6.72912 28.5365C6.72912 28.3162 6.83825 28.1381 7.05649 28.0022C7.15163 27.9382 7.26753 27.8869 7.39685 27.8517C7.52616 27.8165 7.66606 27.798 7.80767 27.7975C7.94882 27.7945 8.08972 27.8068 8.2238 27.8339L8.52082 27.3904C8.33438 27.3461 8.13527 27.3252 7.93524 27.3286ZM4.23505 27.3904V29.9193H5.0162V27.3904H4.23505ZM15.3087 27.7394C15.4844 27.7396 15.6581 27.7619 15.819 27.8049C15.9798 27.848 16.1244 27.9108 16.2436 27.9895C16.5038 28.1564 16.634 28.3775 16.634 28.6528C16.634 28.9278 16.5038 29.1489 16.2436 29.3161C16.1258 29.3956 15.9817 29.459 15.8209 29.5022C15.66 29.5453 15.486 29.5672 15.3103 29.5664V29.5685C15.1339 29.5697 14.9591 29.5481 14.7975 29.505C14.6358 29.4619 14.4911 29.3984 14.3727 29.3186C14.1158 29.1535 13.9871 28.9316 13.9866 28.653C13.9866 28.3743 14.1153 28.1524 14.3727 27.9874C14.4924 27.909 14.6374 27.8465 14.7985 27.8038C14.9596 27.7611 15.1331 27.7392 15.3087 27.7394ZM10.5573 27.742C10.953 27.7393 11.2515 27.8034 11.4525 27.9342C11.6539 28.0647 11.7629 28.2022 11.7795 28.3467L9.3696 28.3509C9.43543 28.1787 9.58825 28.0236 9.80647 27.9072C10.0152 27.7978 10.2821 27.739 10.5573 27.742ZM27.9466 27.742C28.3421 27.7393 28.6406 27.8034 28.8419 27.9342C29.043 28.0647 29.152 28.2022 29.1689 28.3467L26.759 28.3509C26.8248 28.1787 26.9776 28.0236 27.1958 27.9072C27.4044 27.7979 27.6716 27.7391 27.9466 27.742ZM19.8097 28.6631C20.2515 28.6632 20.5829 28.7185 20.8037 28.8288C20.8031 28.9276 20.7673 29.0252 20.6986 29.1147C20.6299 29.2042 20.5301 29.2834 20.406 29.347C20.1708 29.4867 19.8559 29.5654 19.5276 29.5664V29.5685C19.3142 29.5695 19.1053 29.5309 18.9286 29.4579C18.8461 29.4272 18.7783 29.3839 18.7318 29.3322C18.6852 29.2806 18.6617 29.2224 18.6635 29.1635C18.6651 29.0955 18.6919 29.0287 18.7418 28.968C18.7918 28.9073 18.8637 28.8542 18.9521 28.8129C19.1442 28.713 19.43 28.6629 19.8097 28.6631Z" fill="#DB7C0F"/>
</svg>
