<svg width="32" height="32" viewBox="0 0 32 32" fill="none" xmlns="http://www.w3.org/2000/svg">
<path d="M31.0272 14.6092L17.3918 0.97418C16.607 0.188945 15.3334 0.188945 14.5475 0.97418L11.7163 3.80587L15.308 7.39757C16.1429 7.11578 17.0998 7.30479 17.7651 7.97004C18.4338 8.63949 18.6213 9.60458 18.3326 10.4423L21.7942 13.9041C22.6316 13.6154 23.5982 13.8019 24.2667 14.4719C25.2018 15.4063 25.2018 16.9211 24.2667 17.856C24.0444 18.0783 23.7806 18.2547 23.4902 18.375C23.1997 18.4954 22.8885 18.5573 22.5741 18.5573C22.2597 18.5573 21.9485 18.4954 21.658 18.375C21.3676 18.2547 21.1038 18.0783 20.8815 17.856C20.5477 17.5219 20.3201 17.0965 20.2274 16.6333C20.1347 16.1702 20.1811 15.69 20.3608 15.2531L17.1328 12.0251L17.1323 20.5209C17.3665 20.6363 17.5803 20.789 17.7653 20.9732C18.7 21.9076 18.7 23.4219 17.7653 24.3583C16.8304 25.2927 15.3151 25.2927 14.3812 24.3583C13.4466 23.4221 13.4466 21.9078 14.3812 20.9732C14.6051 20.7489 14.8715 20.5714 15.1647 20.4512V11.8767C14.8713 11.7567 14.6048 11.5791 14.3812 11.3544C13.6732 10.6469 13.5027 9.6078 13.8659 8.73796L10.3249 5.19698L0.97533 14.5461C0.598129 14.9234 0.38623 15.4351 0.38623 15.9686C0.38623 16.5021 0.598129 17.0138 0.97533 17.3911L14.611 31.0261C15.3963 31.8113 16.6694 31.8113 17.4559 31.0261L31.0275 17.4545C31.4046 17.077 31.6164 16.5653 31.6164 16.0318C31.6163 15.4982 31.4044 14.9865 31.0272 14.6092Z" fill="#F34F29"/>
</svg>
