<svg width="30" height="30" viewBox="0 0 30 30" fill="none" xmlns="http://www.w3.org/2000/svg">
<path d="M22.9688 0H7.03125C3.148 0 0 3.148 0 7.03125V22.9688C0 26.852 3.148 30 7.03125 30H22.9688C26.852 30 30 26.852 30 22.9688V7.03125C30 3.148 26.852 0 22.9688 0Z" fill="#F0DB4F"/>
<path d="M7.8883 25.07L10.184 23.6807C10.627 24.4659 11.0299 25.1304 11.9963 25.1304C12.9227 25.1304 13.5067 24.7681 13.5067 23.3585V13.7728H16.326V23.3984C16.326 26.3183 14.6144 27.6475 12.1171 27.6475C9.86186 27.6475 8.55275 26.4795 7.88818 25.0698M17.8573 24.7679L20.1528 23.4389C20.7571 24.4258 21.5425 25.1507 22.9319 25.1507C24.1001 25.1507 24.845 24.5666 24.845 23.7611C24.845 22.7945 24.0797 22.4521 22.7909 21.8884L22.0863 21.5862C20.0522 20.7204 18.7029 19.6329 18.7029 17.3372C18.7029 15.2227 20.314 13.6116 22.8313 13.6116C24.6236 13.6116 25.9124 14.2359 26.8387 15.8671L24.6437 17.2767C24.1603 16.4108 23.6369 16.0685 22.8313 16.0685C22.0056 16.0685 21.482 16.5921 21.482 17.2767C21.482 18.1225 22.0056 18.4649 23.2138 18.9886L23.9186 19.2906C26.315 20.3177 27.6643 21.3647 27.6643 23.7208C27.6643 26.2583 25.6707 27.6477 22.9924 27.6477C20.3745 27.6477 18.6829 26.3992 17.8573 24.7679Z" fill="#323330"/>
</svg>
