<svg width="30" height="30" viewBox="0 0 30 30" fill="none" xmlns="http://www.w3.org/2000/svg">
<g clip-path="url(#clip0_307_73)">
<path d="M29.9479 5.88086L27.2244 27.5174L14.9818 29.9242L2.77299 27.5207L0.0522461 5.88086H29.9479Z" fill="#E44D26"/>
<path d="M15 28.0845L24.8926 26.1396L27.22 7.65015H15V28.0845Z" fill="#F16529"/>
<path d="M9.70543 12.9582H15V10.3042H5.61523L5.70477 11.0162L6.62469 18.3301H15V15.676H10.0475L9.70543 12.9582ZM10.5489 19.6571H6.79191L7.31621 23.8244L14.9827 25.3335L15 25.3302V22.5689L14.9836 22.572L10.8154 21.7738L10.5489 19.6571Z" fill="#EBEBEB"/>
<path d="M2.8335 0H4.73545V1.33255H6.47533V0H8.3774V4.03529H6.47545V2.68404H4.73557V4.03529H2.83361L2.8335 0ZM10.8784 1.3382H9.20428V0H14.4559V1.3382H12.7807V4.03529H10.8788V1.3382H10.8784ZM15.2894 0H17.2725L18.4924 1.41789L19.7112 0H21.6952V4.03529H19.801V2.03518L18.4924 3.46994H18.4596L17.1503 2.03518V4.03529H15.2894V0ZM22.6417 0H24.5442V2.7015H27.2189V4.03529H22.6416L22.6417 0Z" fill="black"/>
<path d="M14.9869 18.3301H19.5956L19.161 21.7722L14.9868 22.5711V25.3323L22.6594 23.8244L22.7157 23.376L23.5953 16.3887L23.6866 15.676H14.9869V18.3301ZM14.9869 12.9518V12.9582H24.0271L24.1021 12.3617L24.2728 11.0162L24.3622 10.3042H14.9869V12.9518Z" fill="white"/>
</g>
<defs>
<clipPath id="clip0_307_73">
<rect width="30" height="30" fill="white"/>
</clipPath>
</defs>
</svg>
