<svg width="40" height="40" viewBox="0 0 40 40" fill="none" xmlns="http://www.w3.org/2000/svg">
<path d="M19.8136 4.3186C18.5343 4.32466 17.3131 4.43344 16.2381 4.62373C13.0716 5.18308 12.4971 6.35391 12.4971 8.51345V11.3651H19.9793V12.3156H9.68884C7.51445 12.3156 5.61035 13.6225 5.01463 16.1096C4.32741 18.9593 4.29711 20.738 5.01463 23.7139C5.54641 25.9291 6.81662 27.5072 8.99131 27.5072H11.5642V24.0887C11.5642 21.6189 13.7007 19.4405 16.2384 19.4405H23.7121C25.7925 19.4405 27.453 17.7273 27.453 15.6384V8.51375C27.453 6.48571 25.7422 4.96249 23.7121 4.62403C22.4261 4.41011 21.0926 4.31284 19.8136 4.3186ZM15.7672 6.61207C16.5399 6.61207 17.1713 7.25354 17.1713 8.04257C17.1713 8.82827 16.5402 9.46368 15.7672 9.46368C14.9915 9.46368 14.3633 8.82827 14.3633 8.04257C14.363 7.25354 14.9915 6.61207 15.7672 6.61207Z" fill="url(#paint0_linear_269_560)"/>
<path d="M28.3859 12.3157V15.6385C28.3859 18.2141 26.2018 20.3821 23.7117 20.3821H16.238C14.1909 20.3821 12.4971 22.1344 12.4971 24.1846V31.3098C12.4971 33.3372 14.26 34.5302 16.238 35.1116C18.6063 35.8077 20.8777 35.9337 23.7117 35.1116C25.5952 34.5659 27.4526 33.4684 27.4526 31.3098V28.4579H19.9793V27.507H31.1942C33.3686 27.507 34.1794 25.9905 34.9357 23.7137C35.7169 21.3699 35.6833 19.1158 34.9357 16.1094C34.3982 13.9444 33.3719 12.3154 31.1942 12.3154L28.3859 12.3157ZM24.1823 30.359C24.9583 30.359 25.5864 30.9944 25.5864 31.7807C25.5864 32.5691 24.958 33.2106 24.1823 33.2106C23.4096 33.2106 22.7784 32.5691 22.7784 31.7807C22.7784 30.9944 23.4096 30.359 24.1823 30.359Z" fill="url(#paint1_linear_269_560)"/>
<path opacity="0.444" d="M30.0911 36.8463C30.0911 37.9198 25.6017 38.7904 20.0643 38.7904C14.5265 38.7904 10.0371 37.9198 10.0371 36.8463C10.0371 35.7724 14.5262 34.9019 20.0643 34.9019C25.6017 34.9019 30.0911 35.7721 30.0911 36.8463Z" fill="url(#paint2_radial_269_560)"/>
<defs>
<linearGradient id="paint0_linear_269_560" x1="3.73772" y1="5.21024" x2="20.9952" y2="19.9273" gradientUnits="userSpaceOnUse">
<stop stop-color="#5A9FD4"/>
<stop offset="1" stop-color="#306998"/>
</linearGradient>
<linearGradient id="paint1_linear_269_560" x1="27.4881" y1="29.0758" x2="21.2993" y2="20.397" gradientUnits="userSpaceOnUse">
<stop stop-color="#FFD43B"/>
<stop offset="1" stop-color="#FFE873"/>
</linearGradient>
<radialGradient id="paint2_radial_269_560" cx="0" cy="0" r="1" gradientUnits="userSpaceOnUse" gradientTransform="translate(20.0237 36.7906) rotate(-90) scale(1.9448 8.54903)">
<stop stop-color="#B8B8B8" stop-opacity="0.498"/>
<stop offset="1" stop-color="#7F7F7F" stop-opacity="0"/>
</radialGradient>
</defs>
</svg>
