<svg width="36" height="32" viewBox="0 0 36 32" fill="none" xmlns="http://www.w3.org/2000/svg">
<path d="M18.0008 19.2161C19.777 19.2161 21.217 17.7762 21.217 16C21.217 14.2237 19.777 12.7838 18.0008 12.7838C16.2246 12.7838 14.7847 14.2237 14.7847 16C14.7847 17.7762 16.2246 19.2161 18.0008 19.2161Z" fill="#61DAFB"/>
<path d="M30.2166 10.6962C29.596 10.4705 28.9471 10.2448 28.27 10.0473C28.4393 9.37024 28.5803 8.69316 28.6932 8.04428C29.2856 4.32033 28.6368 1.69663 26.8312 0.681003C26.2952 0.370673 25.7027 0.229614 25.0257 0.229614C23.0508 0.229614 20.54 1.69663 18.0009 4.15106C15.4619 1.69663 12.951 0.229614 10.9762 0.229614C10.2991 0.229614 9.70665 0.370673 9.17063 0.681003C7.36507 1.72484 6.7162 4.34854 7.30865 8.04428C7.4215 8.69316 7.56255 9.37024 7.73183 10.0473C7.05474 10.2448 6.40587 10.4423 5.78521 10.6962C2.25874 12.0504 0.340332 13.9123 0.340332 16C0.340332 18.0877 2.28695 19.9497 5.78521 21.3038C6.40587 21.5295 7.05474 21.7552 7.73183 21.9527C7.56255 22.6298 7.4215 23.3069 7.30865 23.9557C6.7162 27.6797 7.36507 30.3034 9.17063 31.319C9.70665 31.6294 10.2991 31.7704 10.9762 31.7704C12.9792 31.7704 15.4901 30.3034 18.0009 27.849C20.54 30.3034 23.0508 31.7704 25.0257 31.7704C25.7027 31.7704 26.2952 31.6294 26.8312 31.319C28.6368 30.2752 29.2856 27.6515 28.6932 23.9557C28.5803 23.3069 28.4393 22.6298 28.27 21.9527C28.9471 21.7552 29.596 21.5577 30.2166 21.3038C33.7431 19.9497 35.6615 18.0877 35.6615 16C35.6615 13.9123 33.7431 12.0504 30.2166 10.6962ZM26.0413 2.09159C27.198 2.76868 27.5929 4.85635 27.1133 7.81859C27.0287 8.41104 26.8876 9.0317 26.7184 9.68057C25.2514 9.34203 23.6997 9.11633 22.0634 8.97527C21.1042 7.62111 20.1168 6.408 19.1294 5.30774C21.2171 3.24828 23.333 1.83769 25.0539 1.83769C25.4206 1.83769 25.7592 1.92232 26.0413 2.09159ZM22.8816 18.8212C22.3738 19.724 21.7813 20.6267 21.1606 21.5295C20.1168 21.6142 19.073 21.6424 18.0009 21.6424C16.9007 21.6424 15.8568 21.6142 14.8412 21.5295C14.2205 20.6267 13.6563 19.724 13.1485 18.8212C12.6125 17.8902 12.1047 16.931 11.6533 16C12.1047 15.069 12.6125 14.1098 13.1485 13.1788C13.6563 12.2761 14.2488 11.3733 14.8694 10.4705C15.9132 10.3859 16.9571 10.3577 18.0291 10.3577C19.1294 10.3577 20.1732 10.3859 21.1889 10.4705C21.8095 11.3733 22.3738 12.2761 22.8816 13.1788C23.4176 14.1098 23.9254 15.069 24.3768 16C23.8972 16.931 23.4176 17.862 22.8816 18.8212ZM25.2231 17.8902C25.6463 18.8776 25.9849 19.8368 26.2952 20.796C25.336 21.0217 24.3204 21.191 23.2483 21.332C23.5869 20.796 23.9536 20.2318 24.2639 19.6393C24.6025 19.0469 24.9128 18.4544 25.2231 17.8902ZM18.0009 25.5356C17.3238 24.8021 16.675 24.0122 16.0543 23.194C16.7032 23.2222 17.3521 23.2504 18.0009 23.2504C18.6498 23.2504 19.2987 23.2222 19.9475 23.194C19.3269 24.0122 18.678 24.8021 18.0009 25.5356ZM12.7535 21.3038C11.6815 21.1628 10.6659 20.9935 9.70665 20.7678C10.017 19.8368 10.3555 18.8494 10.7787 17.862C11.089 18.4262 11.3994 19.0187 11.7379 19.5829C12.0764 20.2036 12.415 20.7396 12.7535 21.3038ZM10.7787 14.1098C10.3555 13.1224 10.017 12.1632 9.70665 11.204C10.6659 10.9783 11.6815 10.809 12.7535 10.668C12.415 11.204 12.0482 11.7682 11.7379 12.3607C11.3994 12.9531 11.089 13.5456 10.7787 14.1098ZM18.0009 6.46442C18.678 7.19793 19.3269 7.98786 19.9475 8.806C19.2987 8.77779 18.6498 8.74958 18.0009 8.74958C17.3521 8.74958 16.7032 8.77779 16.0543 8.806C16.675 7.98786 17.3238 7.19793 18.0009 6.46442ZM24.2639 12.3889L23.2483 10.6962C24.3204 10.8373 25.336 11.0065 26.2952 11.2322C25.9849 12.1632 25.6463 13.1506 25.2231 14.138C24.9128 13.5456 24.6025 12.9531 24.2639 12.3889ZM8.88851 7.81859C8.40891 4.85635 8.80387 2.76868 9.96056 2.09159C10.2427 1.92232 10.5812 1.83769 10.948 1.83769C12.6407 1.83769 14.7566 3.22007 16.8724 5.30774C15.885 6.37979 14.8976 7.62111 13.9384 8.97527C12.3021 9.11633 10.7505 9.37024 9.28347 9.68057C9.1142 9.0317 9.00136 8.41104 8.88851 7.81859ZM1.92019 16C1.92019 14.6741 3.52827 13.2635 6.34945 12.2196C6.91368 11.9939 7.53434 11.7965 8.155 11.6272C8.60639 13.0378 9.17063 14.533 9.84771 16.0282C9.17063 17.5235 8.57818 18.9905 8.155 20.4011C4.26177 19.2726 1.92019 17.5799 1.92019 16ZM9.96056 29.9084C8.80387 29.2314 8.40891 27.1437 8.88851 24.1814C8.97314 23.589 9.1142 22.9683 9.28347 22.3195C10.7505 22.658 12.3021 22.8837 13.9384 23.0248C14.8976 24.3789 15.885 25.592 16.8724 26.6923C14.7848 28.7518 12.6689 30.1623 10.948 30.1623C10.5812 30.1623 10.2427 30.0777 9.96056 29.9084ZM27.1133 24.1814C27.5929 27.1437 27.198 29.2314 26.0413 29.9084C25.7592 30.0777 25.4206 30.1623 25.0539 30.1623C23.3612 30.1623 21.2453 28.78 19.1294 26.6923C20.1168 25.6202 21.1042 24.3789 22.0634 23.0248C23.6997 22.8837 25.2514 22.6298 26.7184 22.3195C26.8876 22.9683 27.0005 23.589 27.1133 24.1814ZM29.6524 19.7804C29.0882 20.0061 28.4675 20.2036 27.8468 20.3728C27.3955 18.9623 26.8312 17.467 26.1541 15.9718C26.8312 14.4766 27.4237 13.0096 27.8468 11.599C31.7401 12.7274 34.0816 14.4202 34.0816 16C34.0816 17.326 32.4454 18.7366 29.6524 19.7804Z" fill="#61DAFB"/>
</svg>
