<svg width="26" height="26" viewBox="0 0 26 26" fill="none" xmlns="http://www.w3.org/2000/svg">
<g clip-path="url(#clip0_269_515)">
<path d="M4.0918 19.4164L3.19336 18.8974L13.2031 1.56128L14.101 2.08003L4.0918 19.4164Z" fill="#E434AA"/>
<path d="M2.9873 17.5127H23.0061V18.5498H2.9873V17.5127Z" fill="#E434AA"/>
<path d="M13.397 23.8765L3.38428 18.0957L3.90303 17.1968L13.9159 22.9785L13.397 23.8765ZM22.0952 8.80913L12.0825 3.02749L12.6013 2.12964L22.6142 7.9103L22.0952 8.80913Z" fill="#E434AA"/>
<path d="M3.90518 8.80522L3.38623 7.90659L13.3999 2.12573L13.9187 3.02378L3.90518 8.80522Z" fill="#E434AA"/>
<path d="M21.9104 19.4164L11.9014 2.08003L12.7994 1.56128L22.8092 18.8974L21.9104 19.4164ZM3.78125 7.21831H4.81895V18.7816H3.78145L3.78125 7.21831Z" fill="#E434AA"/>
<path d="M21.1812 7.21826H22.2187V18.7815H21.1812V7.21826Z" fill="#E434AA"/>
<path d="M13.2207 23.4376L12.7676 22.6525L21.4758 17.6241L21.9289 18.4093L13.2207 23.4376Z" fill="#E434AA"/>
<path d="M23.5936 19.1187C22.9939 20.1625 21.6565 20.5187 20.6129 19.9191C19.5691 19.3187 19.2129 17.9812 19.8125 16.9375C20.4129 15.8937 21.7504 15.5375 22.7941 16.1373C23.844 16.7437 24.2002 18.075 23.5936 19.1187ZM6.18184 9.06245C5.58145 10.1062 4.24395 10.4625 3.2002 9.86265C2.15645 9.26226 1.8002 7.92495 2.4 6.8812C3.0004 5.83745 4.3377 5.4812 5.38145 6.08081C6.4252 6.68745 6.78145 8.0187 6.18184 9.06245ZM2.40684 19.1187C1.80625 18.075 2.1627 16.7437 3.20625 16.1371C4.25 15.5375 5.58125 15.8937 6.1879 16.9375C6.7875 17.9812 6.43125 19.3125 5.3875 19.9191C4.3377 20.5187 3.00645 20.1625 2.40684 19.1187ZM19.8186 9.06245C19.219 8.0187 19.5752 6.68745 20.619 6.08081C21.6627 5.4812 22.994 5.83745 23.6004 6.8812C24.2 7.92495 23.844 9.2562 22.8002 9.86284C21.7565 10.4625 20.419 10.1062 19.8186 9.06245ZM13.0002 25.2375C12.7137 25.2377 12.4299 25.1815 12.1652 25.0719C11.9004 24.9624 11.6598 24.8018 11.4573 24.5992C11.2547 24.3966 11.094 24.156 10.9845 23.8912C10.8749 23.6265 10.8187 23.3427 10.8189 23.0562C10.8187 22.7697 10.8749 22.4859 10.9845 22.2212C11.094 21.9564 11.2547 21.7159 11.4573 21.5133C11.6598 21.3107 11.9004 21.15 12.1652 21.0405C12.4299 20.9309 12.7137 20.8747 13.0002 20.875C13.2867 20.8747 13.5705 20.9309 13.8352 21.0405C14.1 21.15 14.3406 21.3107 14.5431 21.5133C14.7457 21.7159 14.9064 21.9564 15.0159 22.2212C15.1255 22.4859 15.1817 22.7697 15.1815 23.0562C15.1815 24.2564 14.2064 25.2375 13.0002 25.2375ZM13.0002 5.12495C12.7137 5.12521 12.4299 5.06896 12.1652 4.95944C11.9004 4.84991 11.6598 4.68925 11.4573 4.48665C11.2547 4.28405 11.094 4.04349 10.9845 3.77873C10.8749 3.51398 10.8187 3.23022 10.8189 2.9437C10.8187 2.65718 10.8749 2.37343 10.9845 2.10867C11.094 1.84391 11.2547 1.60335 11.4573 1.40075C11.6598 1.19815 11.9004 1.03749 12.1652 0.927967C12.4299 0.81844 12.7137 0.762195 13.0002 0.762452C13.2867 0.762195 13.5705 0.81844 13.8352 0.927967C14.1 1.03749 14.3406 1.19815 14.5431 1.40075C14.7457 1.60335 14.9064 1.84391 15.0159 2.10867C15.1255 2.37343 15.1817 2.65718 15.1815 2.9437C15.1817 3.23022 15.1255 3.51398 15.0159 3.77873C14.9064 4.04349 14.7457 4.28405 14.5431 4.48665C14.3406 4.68925 14.1 4.84991 13.8352 4.95944C13.5705 5.06896 13.2867 5.12521 13.0002 5.12495Z" fill="#E434AA"/>
</g>
<defs>
<clipPath id="clip0_269_515">
<rect width="25" height="25" fill="white" transform="translate(0.5 0.5)"/>
</clipPath>
</defs>
</svg>
