<svg width="30" height="30" viewBox="0 0 30 30" fill="none" xmlns="http://www.w3.org/2000/svg">
<path d="M2.91772 25.4084C2.13949 25.4084 1.65441 25.9218 1.4614 26.9387C1.75368 26.4274 2.09559 26.2388 2.48162 26.3685C2.70221 26.4407 2.86279 26.6506 3.03838 26.8885C3.32515 27.2708 3.65603 27.712 4.37912 27.712C5.15625 27.712 5.64154 27.1986 5.83456 26.1814C5.5425 26.6933 5.20037 26.8816 4.81434 26.7519C4.59375 26.6797 4.43426 26.4701 4.25757 26.2322C3.97081 25.8499 3.63971 25.4084 2.91772 25.4084ZM12.6064 25.5462V29.4654H13.0476V25.5459L12.6064 25.5462ZM11.8732 25.6397C11.7188 25.6397 11.5921 25.8055 11.5921 26.0073C11.5921 26.2025 11.719 26.376 11.8732 26.376C12.0274 26.376 12.1599 26.2028 12.1549 26.0073C12.1549 25.8055 12.0276 25.6397 11.8732 25.6397ZM16.9467 25.6397C16.7923 25.6397 16.6657 25.8055 16.6657 26.0073C16.6657 26.2028 16.7925 26.376 16.9467 26.376C17.1071 26.376 17.2335 26.2028 17.2284 26.0073C17.2284 25.8055 17.1011 25.6397 16.9467 25.6397ZM21.6567 25.705V27.1556C21.5023 26.8735 21.2594 26.7011 20.9398 26.7011C20.3821 26.7011 19.9196 27.3147 19.9196 28.1153C19.9196 28.9093 20.3821 29.5307 20.9398 29.5307C21.2594 29.5307 21.5023 29.3575 21.6567 29.0751V29.4654H22.0979V25.7053L21.6567 25.705ZM8.23963 25.8854L7.79846 26.0581V26.7799H7.42279V27.336H7.79846V28.6284C7.79846 29.3274 8.06846 29.5737 8.75228 29.4654V28.9454C8.41544 28.9668 8.24493 28.9746 8.24493 28.6284V27.336H8.74632V26.7799H8.23963V25.8854ZM9.97676 26.7011C9.41912 26.7011 8.95654 27.3147 8.95654 28.1153C8.95654 28.9093 9.41934 29.5307 9.97676 29.5307C10.2966 29.5307 10.5386 29.3575 10.6937 29.0751V29.4654H11.1349V26.7799H10.6937V27.1553C10.5384 26.8735 10.2964 26.7011 9.97676 26.7011ZM18.7615 26.7077C18.4857 26.7077 18.2651 26.8455 18.1273 27.1342V26.7877H17.6861V29.4721H18.1273V28.0284C18.1273 27.4804 18.3589 27.2569 18.6512 27.2569C18.9269 27.2569 19.1087 27.4657 19.1087 27.8774V29.4654H19.5499V27.8119C19.5499 27.1195 19.219 26.7077 18.7615 26.7077ZM23.5809 26.7077C22.9579 26.7077 22.4951 27.321 22.4951 28.1231C22.4951 28.9171 22.9641 29.5376 23.5809 29.5376C23.9843 29.5376 24.3366 29.2633 24.5021 28.8372L24.122 28.5562C24.0218 28.8008 23.8237 28.9668 23.5756 28.9668C23.2171 28.9668 22.9414 28.6059 22.9414 28.1231C22.9414 27.6392 23.2121 27.2783 23.5756 27.2783C23.8237 27.2783 24.028 27.4374 24.116 27.69L24.4968 27.4013C24.3313 26.9818 23.9843 26.7077 23.5809 26.7077ZM25.5386 26.7155C25.1199 26.7155 24.7888 27.0326 24.7888 27.5379C24.7888 28.4973 25.8918 28.2317 25.8918 28.7072C25.8918 28.9238 25.7426 29.011 25.5446 29.011C25.3178 29.011 25.1524 28.8666 25.0871 28.6206L24.7061 28.9093C24.8387 29.2916 25.1363 29.5376 25.5446 29.5376C25.9857 29.5376 26.3442 29.2423 26.3442 28.7075C26.3442 27.7114 25.2413 28.0073 25.2413 27.5165C25.2413 27.3288 25.3793 27.2344 25.5386 27.2422C25.7102 27.2422 25.8532 27.3357 25.9246 27.5457L26.3003 27.2705C26.1562 26.9177 25.8757 26.7155 25.5386 26.7155ZM27.4308 26.7155C27.011 26.7155 26.6804 27.0326 26.6804 27.5379C26.6804 28.4973 27.7833 28.2317 27.7833 28.7072C27.7833 28.9238 27.634 29.011 27.4359 29.011C27.21 29.011 27.0446 28.8666 26.9784 28.6206L26.5976 28.9093C26.73 29.2916 27.0274 29.5376 27.4359 29.5376C27.8771 29.5376 28.2355 29.2423 28.2355 28.7075C28.2355 27.7114 27.1326 28.0073 27.1326 27.5165C27.1326 27.3288 27.2707 27.2344 27.4308 27.2422C27.6015 27.2422 27.7445 27.3357 27.8168 27.5457L28.1918 27.2705C28.0476 26.9177 27.7668 26.7155 27.4308 26.7155ZM11.6528 26.7799V29.4652H12.094V26.7799H11.6528ZM13.3849 26.7799L14.0301 29.4652H14.4653L14.8954 27.6539L15.3201 29.4654H15.7562L16.4014 26.7799H15.9326L15.529 28.6353L15.1054 26.7799H14.6808L14.25 28.6353L13.8534 26.7799H13.3849ZM16.7263 26.7799V29.4652H17.1675V26.7799H16.7263ZM10.0423 27.2638C10.412 27.2638 10.6937 27.6248 10.6937 28.1231C10.6937 28.6203 10.412 28.9815 10.0423 28.9815C9.67346 28.9815 9.39772 28.6206 9.39154 28.1231C9.39154 27.6245 9.67368 27.2638 10.0423 27.2638ZM21.0062 27.2638C21.375 27.2638 21.6567 27.6248 21.6567 28.1231C21.6567 28.6203 21.375 28.9815 21.006 28.9815C20.6365 28.9815 20.3546 28.6206 20.3546 28.1231C20.3546 27.6245 20.6367 27.2638 21.0062 27.2638ZM1.45654 27.6969C0.678309 27.6969 0.193235 28.2092 0 29.2272C0.292059 28.7144 0.634191 28.5271 1.02022 28.6567C1.24081 28.7289 1.40118 28.9388 1.57676 29.1764C1.86375 29.559 2.19441 29.9999 2.9175 29.9999C3.69463 29.9999 4.17993 29.4868 4.37294 28.4696C4.08088 28.9815 3.73875 29.1701 3.35272 29.039C3.13213 28.9668 2.97287 28.758 2.79618 28.5201C2.51449 28.1364 2.1836 27.6969 1.45654 27.6969Z" fill="black"/>
<path d="M15.8823 0C12.1175 0 9.76538 2.4629 8.82347 7.39072C10.2348 4.92753 11.8824 4.00387 13.7642 4.61974C14.8387 4.97026 15.6066 5.99007 16.4569 7.12017C17.8409 8.95854 19.4428 11.0868 22.9411 11.0868C26.7057 11.0868 29.058 8.62361 29.9999 3.69464C28.5882 6.15907 26.9412 7.08321 25.059 6.46706C23.9847 6.11624 23.2177 5.09673 22.3663 3.96662C20.9832 2.12826 19.3817 0 15.8823 0ZM8.82347 11.0868C5.05891 11.0868 2.70656 13.55 1.76465 18.479C3.17627 16.0145 4.82318 15.0904 6.70538 15.7065C7.77987 16.0573 8.54774 17.0769 9.3981 18.207C10.7821 20.0453 12.384 22.1736 15.8823 22.1736C19.6469 22.1736 21.9992 19.7107 22.9411 14.7829C21.5294 17.2462 19.8824 18.1698 18.0002 17.5539C16.9259 17.2033 16.1589 16.1835 15.3074 15.0534C13.9244 13.215 12.3229 11.0868 8.82347 11.0868Z" fill="#38BDF8"/>
</svg>
