<svg width="30" height="30" viewBox="0 0 30 30" fill="none" xmlns="http://www.w3.org/2000/svg">
<path d="M22.9688 0H7.03125C3.148 0 0 3.148 0 7.03125V22.9688C0 26.852 3.148 30 7.03125 30H22.9688C26.852 30 30 26.852 30 22.9688V7.03125C30 3.148 26.852 0 22.9688 0Z" fill="#007ACC"/>
<path d="M6.63449 15.0995L6.625 16.3281H10.5297V27.4233H13.2917V16.3281H17.1964V15.1233C17.1964 14.4566 17.1822 13.8995 17.1631 13.8852C17.1488 13.8662 14.7726 13.8566 11.8916 13.8614L6.64879 13.8757L6.63449 15.0995ZM24.2075 13.8408C24.9693 14.0313 25.5503 14.3694 26.0836 14.9217C26.3598 15.217 26.7693 15.7551 26.8027 15.8837C26.8122 15.9218 25.5074 16.798 24.717 17.2884C24.6884 17.3075 24.574 17.1836 24.4455 16.9932C24.0598 16.4313 23.655 16.1884 23.0359 16.1456C22.1264 16.0836 21.5407 16.5599 21.5455 17.3551C21.5455 17.5884 21.5788 17.7265 21.6741 17.917C21.874 18.3313 22.2455 18.5789 23.4122 19.0836C25.5598 20.0075 26.4788 20.617 27.0503 21.4836C27.6884 22.4503 27.8313 23.9932 27.3979 25.1408C26.9218 26.3884 25.7407 27.236 24.0788 27.517C23.5646 27.6075 22.3455 27.5932 21.7932 27.4932C20.5884 27.2789 19.4455 26.6837 18.7408 25.9027C18.4646 25.5979 17.9264 24.8027 17.9598 24.7455C17.974 24.7265 18.0979 24.6504 18.2359 24.5694C18.3693 24.4932 18.8741 24.2027 19.3503 23.9265L20.2122 23.4265L20.3931 23.6932C20.6455 24.0788 21.1979 24.6075 21.5312 24.7836C22.4883 25.2884 23.8027 25.217 24.4503 24.6361C24.7265 24.3836 24.8407 24.1217 24.8407 23.7361C24.8407 23.3884 24.7979 23.236 24.6169 22.9741C24.3836 22.6408 23.9075 22.3598 22.555 21.7741C21.0074 21.1074 20.3407 20.6932 19.7312 20.036C19.3789 19.6551 19.0455 19.0455 18.9074 18.536C18.7932 18.1122 18.7646 17.0503 18.855 16.6217C19.174 15.1265 20.3027 14.0837 21.9312 13.7741C22.4598 13.6741 23.6883 13.7122 24.2075 13.8408Z" fill="white"/>
</svg>
