<svg width="30" height="30" viewBox="0 0 30 30" fill="none" xmlns="http://www.w3.org/2000/svg">
<path fill-rule="evenodd" clip-rule="evenodd" d="M13.9214 27.0701C13.3251 27.0183 12.7225 27.0361 12.1225 27.0315C12.064 27.0313 12.0048 27.0938 11.946 27.1271C11.9976 27.1595 12.0482 27.2177 12.1012 27.2201C12.3825 27.2335 12.4908 27.3949 12.4933 27.64C12.4985 28.1743 12.5054 28.7092 12.4906 29.243C12.4812 29.5738 12.2947 29.7173 11.951 29.6603C11.7792 29.6315 11.5922 29.569 11.4602 29.4646C11.1626 29.2293 10.8949 28.9581 10.5927 28.6807L10.7726 28.6155C11.2418 28.4423 11.4494 28.1728 11.4151 27.7804C11.384 27.4225 11.0792 27.112 10.6174 27.0739C10.0309 27.0258 9.43869 27.0387 8.84899 27.0315C8.80433 27.0308 8.75918 27.0811 8.71402 27.1077C8.75918 27.1453 8.80285 27.2143 8.84924 27.2162C9.18381 27.2287 9.26474 27.4302 9.26351 27.7061C9.26079 28.2014 9.26055 28.6967 9.26277 29.1919C9.26425 29.4612 9.17024 29.6433 8.86133 29.6684C8.80976 29.6728 8.76312 29.7322 8.71402 29.7662C8.77447 29.7966 8.83443 29.8524 8.89562 29.8534C9.35603 29.8607 9.81636 29.8606 10.2766 29.8529C10.3353 29.8522 10.3931 29.7918 10.4511 29.759L10.2968 29.6629C10.1782 29.5896 9.98423 29.5369 9.9561 29.4389C9.88948 29.2075 9.90182 28.955 9.88233 28.7114L9.99262 28.6762C10.0634 28.7528 10.1379 28.8264 10.2043 28.9064C10.4244 29.1709 10.6371 29.4409 10.8626 29.7008C10.9213 29.7683 11.0173 29.8505 11.0955 29.85C12.0753 29.8433 13.0576 29.8563 14.0339 29.7918C14.5925 29.7549 15.0268 29.4416 15.2082 28.8879C15.5055 27.9797 14.9387 27.1578 13.9214 27.0701ZM9.81867 28.398V27.3161C10.0654 27.2835 10.4491 27.2385 10.6053 27.4963C10.7082 27.6659 10.703 27.9546 10.6285 28.1407C10.4952 28.4728 10.0654 28.4057 9.81867 28.398ZM14.423 29.1081C14.2607 29.4612 13.6796 29.6886 13.3201 29.5494C13.2288 29.5142 13.1304 29.3644 13.1277 29.265C13.1104 28.6194 13.1188 27.9725 13.1188 27.3053C13.6002 27.2907 14.0828 27.2469 14.3729 27.6894C14.6668 28.1378 14.6404 28.6354 14.423 29.1081ZM24.0732 29.5249C23.8299 29.5975 23.4921 29.6196 23.2841 29.5086C22.8763 29.2911 23.1398 28.8676 23.0635 28.5365C23.5851 28.4912 23.5837 28.4914 23.7645 28.9157C23.7793 28.9507 23.8289 28.9711 23.8625 28.9986C23.8923 28.9473 23.9468 28.8968 23.9481 28.845C23.9557 28.5144 23.9543 28.1836 23.9481 27.853C23.9471 27.8087 23.9012 27.7653 23.8519 27.6796C23.7667 27.864 23.7672 28.0545 23.6562 28.1314C23.5237 28.2231 23.1425 28.2171 23.1425 28.2603V27.2864C23.3892 27.3032 23.6685 27.3307 23.9362 27.3317C24.2861 27.3329 24.2508 27.6879 24.4203 27.8597L24.4951 27.8271L24.4448 27.0572C23.7171 26.9668 22.0391 27.0121 21.8649 27.1367C21.9192 27.1678 21.9628 27.215 22.0085 27.2157C22.3431 27.2203 22.4306 27.4211 22.4321 27.698C22.4336 28.1647 22.4455 28.6316 22.4353 29.0983C22.4232 29.6538 22.0961 29.8357 21.6169 29.517C21.2779 29.2918 20.9983 28.9818 20.7555 28.766C21.0114 28.518 21.3023 28.3429 21.4282 28.0909C21.6581 27.629 21.2749 27.1273 20.6551 27.0711C20.0886 27.0198 19.5154 27.038 18.945 27.0327C18.8895 27.0322 18.8337 27.083 18.7779 27.1101C18.8251 27.147 18.8715 27.2143 18.9201 27.2157C19.2576 27.2272 19.3329 27.4402 19.3368 27.7088C19.3427 28.0978 19.3459 28.4867 19.3462 28.8755C19.3469 29.4988 19.3454 29.4988 18.7918 29.7159L18.7533 29.7885C18.8298 29.8131 18.8981 29.8534 18.9669 29.8543C19.4177 29.8603 19.8684 29.8602 20.3191 29.8541C20.3862 29.8529 20.4526 29.8069 20.5194 29.7815C20.4543 29.7396 20.3926 29.6694 20.3238 29.6617C20.0896 29.6361 19.9877 29.4998 19.9739 29.2942C19.9603 29.0978 19.9709 28.8997 19.9709 28.623C20.0908 28.7317 20.1654 28.7856 20.2226 28.8534C20.4511 29.1241 20.6835 29.3925 20.8952 29.6756C21.0028 29.8194 21.122 29.8622 21.2981 29.8608C22.3199 29.8536 23.3451 29.8577 24.3673 29.8563C24.443 29.8563 24.6229 29.8443 24.6229 29.8357V29.094C24.3762 29.2444 24.2804 29.4636 24.0732 29.5249ZM19.9349 28.3959V27.3214C20.4284 27.2586 20.8044 27.4227 20.8192 27.8295C20.8345 28.2514 20.6751 28.421 19.9349 28.3959ZM5.71419 26.308C5.49953 26.1415 4.19626 26.1545 4.02972 26.3339C4.12619 26.3588 4.20613 26.3902 4.28879 26.3995C4.53972 26.4269 4.62633 26.578 4.55971 26.7872C4.36775 27.3911 4.1558 27.9891 3.92707 28.6627C3.87526 28.5336 3.85231 28.4831 3.83455 28.4306C3.61149 27.7771 3.39264 27.1226 3.16293 26.4712C3.12789 26.3718 3.04425 26.2886 2.98305 26.1981C2.92112 26.2857 2.836 26.3655 2.80121 26.4625C2.5483 27.1662 2.30576 27.8729 2.06001 28.5789L1.99413 28.5861C1.81278 28.0521 1.62871 27.5195 1.45032 26.9843C1.30894 26.5613 1.34151 26.5107 1.79033 26.3792C1.83696 26.365 1.87397 26.3214 1.91567 26.2913C1.87718 26.2596 1.83869 26.2007 1.7997 26.2005C1.23889 26.1945 0.678019 26.1944 0.1172 26.2002C0.077969 26.2007 0.0389845 26.2589 0 26.2901C0.0310889 26.319 0.0611908 26.3725 0.0937602 26.3739C0.592663 26.3974 0.714798 26.7639 0.836933 27.1326C1.12167 27.9912 1.40591 28.8503 1.6941 29.7082C1.72765 29.8081 1.78366 29.9013 1.82906 29.9974L1.91641 29.9921L2.8096 27.4076L3.69242 30L3.79655 29.9928C3.83381 29.8999 3.87526 29.8081 3.90807 29.7135C4.2234 28.8022 4.53972 27.8916 4.85012 26.9788C4.96608 26.6374 5.15459 26.3902 5.56171 26.3749C5.60933 26.3732 5.65571 26.3349 5.71419 26.308ZM17.6982 26.2613C16.9765 26.1799 16.241 26.2127 15.5114 26.2021C15.4739 26.2014 15.4352 26.262 15.3663 26.3198C15.4601 26.3497 15.5119 26.3789 15.5649 26.3811C15.9158 26.395 16.0722 26.5957 16.0762 26.9096C16.0853 27.6477 16.0863 28.3858 16.0754 29.1239C16.0707 29.4284 15.9355 29.6462 15.5746 29.6593C15.519 29.6615 15.4665 29.7329 15.4127 29.7724C15.4773 29.8004 15.5412 29.8522 15.6064 29.8529C16.1469 29.8593 16.6876 29.8591 17.2284 29.8524C17.2904 29.8517 17.3516 29.7957 17.4135 29.7655C17.357 29.7286 17.3037 29.6644 17.2445 29.6596C16.9827 29.6378 16.7976 29.5312 16.7698 29.2643C16.7364 28.9488 16.7248 28.6306 16.7021 28.2825C16.9607 28.2825 17.1813 28.2988 17.3987 28.2794C17.9139 28.2339 18.3691 28.0698 18.5537 27.5454C18.7597 26.9606 18.3814 26.3382 17.6982 26.2613ZM17.8014 27.6467C17.642 27.9316 17.4675 27.9929 16.7273 27.9263V26.5157C16.9741 26.5294 17.511 26.4189 17.7725 26.7922C17.9612 27.0624 17.9612 27.3612 17.8014 27.6467ZM8.0239 27.3264C7.35401 26.7752 6.27478 26.7996 5.6224 27.3674C5.0174 27.894 4.94042 28.721 5.44697 29.3299C5.80376 29.759 6.28514 29.9391 6.87657 29.9641C6.98069 29.9516 7.12281 29.949 7.25704 29.9159C7.903 29.7568 8.37821 29.4066 8.54476 28.7526C8.69231 28.1728 8.4774 27.6999 8.0239 27.3264ZM7.59014 29.3443C7.16575 29.8699 6.29871 29.759 5.97425 29.168C5.75663 28.772 5.73837 28.3515 5.87951 27.927C6.03865 27.4498 6.36533 27.2153 6.8514 27.2162C7.3392 27.2172 7.67107 27.4508 7.82947 27.9227C7.88449 28.0871 7.90596 28.2619 7.94248 28.4318L7.99774 28.467C7.86549 28.7624 7.78802 29.0995 7.59014 29.3443ZM29.3356 28.2449C29.0684 28.1139 28.7913 27.996 28.5423 27.8369C28.4471 27.7761 28.3499 27.5979 28.3768 27.5078C28.4098 27.3973 28.5579 27.2776 28.681 27.2419C29.0398 27.1374 29.3541 27.3525 29.4997 27.749C29.5285 27.8278 29.6438 27.8918 29.6958 27.9625C29.717 27.9471 29.8039 27.9313 29.8039 27.9158V26.8674C29.5572 26.975 29.5604 27.037 29.5396 27.0548C29.2024 27.0133 28.908 26.9462 28.6381 26.9541C28.2741 26.9644 27.9692 27.2102 27.8872 27.5004C27.7955 27.825 27.9127 28.145 28.2228 28.3671C28.3104 28.4296 28.4071 28.4778 28.5043 28.5264C28.7264 28.6369 28.9541 28.7348 29.171 28.8546C29.3684 28.9636 29.551 29.1079 29.4715 29.3635C29.384 29.6428 29.1367 29.673 28.8841 29.6478C28.4412 29.6035 28.1927 29.3402 28.0637 28.9435C28.0442 28.8836 27.9776 28.8376 27.9334 28.7854C27.905 28.8192 27.8527 28.8525 27.852 28.8867C27.8463 29.2406 27.8483 29.5944 27.8483 29.9483L27.942 29.976L28.1535 29.7063C28.2919 29.7703 28.4301 29.851 28.5798 29.9006C29.1224 30.0783 29.7279 29.8402 29.9275 29.38C30.1247 28.9265 29.9172 28.5307 29.3356 28.2449ZM26.6661 28.2411C26.4248 28.1235 26.1818 28.0099 25.9442 27.8858C25.7747 27.7979 25.6145 27.6525 25.7256 27.4716C25.8013 27.3485 25.9975 27.2459 26.1517 27.2277C26.4796 27.1889 26.7032 27.3923 26.8448 27.7593C26.8732 27.8326 26.9457 27.8899 26.9978 27.9543L27.0757 27.9035C27.0757 27.6122 27.0762 27.3212 27.0745 27.0301C27.0742 27.004 27.0565 26.9779 27.0284 26.9019L26.7624 27.1142C26.7128 27.0893 26.6531 27.056 26.5897 27.0294C26.0718 26.8128 25.4522 26.9858 25.2501 27.4021C25.0473 27.8207 25.2861 28.2641 25.8529 28.5326C26.1049 28.6496 26.3525 28.7751 26.5953 28.909C26.7752 29.0099 26.9033 29.1927 26.7962 29.3702C26.7167 29.5024 26.5191 29.6205 26.359 29.6428C25.976 29.6969 25.6424 29.4749 25.4774 29.1196C25.4411 29.041 25.4312 28.9495 25.3898 28.8743C25.3673 28.8338 25.3027 28.8156 25.2573 28.7875C25.2336 28.8249 25.1904 28.8623 25.1899 28.9004C25.1845 29.2115 25.1843 29.5226 25.1894 29.8337C25.1902 29.8726 25.2237 29.9334 25.255 29.943C25.2881 29.953 25.3505 29.9238 25.376 29.8932C25.4179 29.8419 25.4408 29.7755 25.4818 29.6965C25.637 29.77 25.766 29.8467 25.9059 29.8946C26.4414 30.0791 27.0666 29.8464 27.2672 29.397C27.4725 28.9354 27.2628 28.5315 26.6661 28.2411ZM15.0426 23.0731C21.5787 23.0638 26.8695 17.9016 26.8692 11.5339C26.8692 5.26993 21.6028 0.110849 15.311 0.00184609C8.70341 -0.112428 3.18217 5.09361 3.18044 11.4067C3.17822 17.9011 8.44533 23.0827 15.0426 23.0731ZM15.0233 0.560757C21.2984 0.55884 26.298 5.50878 26.296 11.7215C26.2941 17.5866 21.1619 22.4934 15.0283 22.4946C8.77916 22.4958 3.75362 17.5763 3.75386 11.4582C3.75411 5.49776 8.85763 0.562673 15.0233 0.560757ZM10.2875 6.34966C10.3901 6.68147 10.1029 6.79718 9.79745 6.81994C9.47644 6.84437 9.15494 6.86761 8.78212 6.89516L12.4671 17.5545C12.5557 17.4138 12.5922 17.3743 12.6083 17.3281C13.2898 15.3505 13.9752 13.374 14.6394 11.3906C14.7001 11.2098 14.67 10.9702 14.6034 10.7843C14.252 9.79943 13.8311 8.8359 13.5229 7.83906C13.312 7.15653 13.0324 6.715 12.2019 6.79406C12.0603 6.80748 11.8878 6.51185 11.7292 6.35901C11.9209 6.24809 12.1111 6.04374 12.3045 6.04086C13.9964 6.0157 15.6886 6.01618 17.3804 6.0423C17.5741 6.04541 17.7646 6.25527 17.9566 6.36907C17.7885 6.51808 17.6437 6.74136 17.4475 6.79885C17.1327 6.89109 16.7836 6.8736 16.4068 6.90618L20.0963 17.5631C20.6554 15.7606 21.1752 14.1052 21.6808 12.4459C22.1321 10.9645 21.8632 9.58119 21.0474 8.2765C20.8022 7.88409 20.5007 7.50342 20.362 7.07555C20.2038 6.58875 20.0728 6.03463 20.1567 5.54663C20.2986 4.71917 20.9524 4.30831 21.8375 4.22973C16.995 -0.13327 9.38638 1.42847 6.58271 6.16927C7.66194 6.12064 8.69231 6.05715 9.72343 6.04374C9.9186 6.04134 10.2416 6.20113 10.2875 6.34966ZM12.2167 20.7855C12.194 20.8495 12.1928 20.9204 12.1753 21.0268C14.2622 21.5883 16.3084 21.5478 18.4029 20.8627L15.203 12.3532C14.179 15.2434 13.1967 18.0142 12.2167 20.7855ZM10.6043 20.4008L5.78352 7.56092C3.60878 11.6855 5.26315 17.9787 10.6043 20.4008ZM25.1781 12.1503C25.3308 10.2 24.6382 7.49959 24.0396 7.12826C23.973 7.84552 24.0194 8.644 23.8074 9.37109C23.3085 11.0845 22.6984 12.7684 22.1106 14.4569C21.4718 16.292 20.8079 18.1189 20.1545 19.9494C23.2232 18.1831 24.9096 15.5764 25.1781 12.1503Z" fill="black"/>
</svg>
